#!OML:ASF F:\VICON\USERDATA\INSTALL\rory3\rory3.ASF
:FULLY-SPECIFIED
:DEGREES
462
root 3.62855 16.6377 0.17069 8.00264 -2.78598 3.39641
lowerback -3.65772 1.69658 -0.856346
upperback 2.11508 2.45093 -3.43967
thorax 4.35471 1.24846 -2.89727
lowerneck -2.64902 9.88399 5.00427
upperneck 54.6314 14.1286 3.9763
head 24.5754 6.74064 4.01439
rclavicle -8.74653e-015 -3.18055e-015
rhumerus -23.307 6.71364 -92.8245
rradius 81.5871
rwrist -51.5514
rhand -4.90191 -36.6862
rfingers 7.12502
rthumb 20.8877 -65.5817
lclavicle -8.74653e-015 -3.18055e-015
lhumerus -8.02538 -10.4943 84.18
lradius 62.8872
lwrist 73.5821
lhand -27.8437 -13.8247
lfingers 7.12502
lthumb -1.23498 16.1514
rfemur -51.7386 9.8974 11.5103
rtibia 75.8008
rfoot 11.1253 3.10277
rtoes -26.7304
lfemur -27.5852 -2.02637 -31.7164
ltibia 44.1336
lfoot -21.7447 15.6092
ltoes 7.4722
463
root 3.63368 16.6427 0.177158 7.89742 -2.66851 3.31002
lowerback -3.58917 1.63141 -0.699608
upperback 2.1976 2.35491 -3.40379
thorax 4.40198 1.20543 -2.95643
lowerneck -2.74349 9.97237 4.73453
upperneck 54.6104 14.2446 4.14784
head 24.4868 6.74756 4.17351
rclavicle 1.60022e-014 1.78906e-014
rhumerus -23.403 6.8942 -92.8934
rradius 81.4047
rwrist -51.5827
rhand -4.85603 -36.3421
rfingers 7.12502
rthumb 20.9317 -65.2327
lclavicle 1.60022e-014 1.78906e-014
lhumerus -8.04893 -10.2548 84.2034
lradius 62.6834
lwrist 73.0876
lhand -28.105 -13.0678
lfingers 7.12502
lthumb -1.48732 16.9067
rfemur -51.462 9.87142 11.6237
rtibia 75.6581
rfoot 11.1296 3.07139
rtoes -26.6189
lfemur -27.4402 -2.19152 -31.6041
ltibia 44.0648
lfoot -21.7545 15.5881
ltoes 8.27292
464
root 3.64098 16.6505 0.186154 7.75698 -2.32084 3.24977
lowerback -3.56448 1.48806 -0.496182
upperback 2.37101 2.15684 -3.38161
thorax 4.56576 1.11452 -3.0623
lowerneck -2.91614 10.0747 4.54652
upperneck 54.5602 14.3849 4.26682
head 24.4283 6.77107 4.30109
rclavicle -1.09332e-015 5.1684e-015
rhumerus -23.3415 7.08266 -92.937
rradius 81.2083
rwrist -51.5639
rhand -5.22584 -34.6672
rfingers 7.12502
rthumb 20.5764 -63.5966
lclavicle -1.09332e-015 5.1684e-015
lhumerus -8.08597 -10.0597 84.1847
lradius 62.6598
lwrist 72.7689
lhand -28.2837 -12.273
lfingers 7.12502
lthumb -1.65996 17.7003
rfemur -51.0728 9.62713 11.7386
rtibia 75.5341
rfoot 10.9935 3.01812
rtoes -27.0116
lfemur -27.1968 -2.57936 -31.5023
ltibia 43.9995
lfoot -21.8628 15.5237
ltoes 9.00456
465
root 3.64486 16.6571 0.193715 7.71488 -2.31891 3.29642
lowerback -3.73053 1.56738 -0.430055
upperback 2.48079 2.2711 -3.46432
thorax 4.78735 1.17662 -3.17228
lowerneck -2.91877 10.0368 4.51339
upperneck 54.5759 14.217 4.49578
head 24.3852 6.72845 4.40069
rclavicle -1.64991e-014 1.51076e-014
rhumerus -23.3602 6.89999 -92.9383
rradius 81.0095
rwrist -51.4681
rhand -5.32261 -33.5456
rfingers 7.12502
rthumb 20.4834 -62.4851
lclavicle -1.64991e-014 1.51076e-014
lhumerus -8.22106 -10.3336 84.2308
lradius 62.825
lwrist 73.0863
lhand -29.2643 -12.5934
lfingers 7.12502
lthumb -2.60696 17.3705
rfemur -50.9467 9.6592 11.6541
rtibia 75.4579
rfoot 10.9487 3.04662
rtoes -27.1378
lfemur -27.0646 -2.69253 -31.5672
ltibia 43.9418
lfoot -21.9436 15.6255
ltoes 9.06337
466
root 3.64261 16.6572 0.190812 7.77233 -2.51462 3.28174
lowerback -3.82195 1.74863 -0.391787
upperback 2.42842 2.51589 -3.55191
thorax 4.80427 1.30095 -3.26338
lowerneck -2.83124 9.9544 4.49931
upperneck 54.745 13.9375 4.85432
head 24.4587 6.65505 4.56586
rclavicle -1.27222e-014 1.23246e-014
rhumerus -23.6636 6.55291 -92.9952
rradius 80.9169
rwrist -51.3742
rhand -4.98552 -34.3554
rfingers 7.12502
rthumb 20.8073 -63.2598
lclavicle -1.27222e-014 1.23246e-014
lhumerus -8.42924 -10.7823 84.3489
lradius 62.987
lwrist 74.0196
lhand -31.5173 -14.4825
lfingers 7.12502
lthumb -4.78264 15.4435
rfemur -51.0658 9.92622 11.6022
rtibia 75.4304
rfoot 11.0188 3.10162
rtoes -27.1302
lfemur -27.147 -2.58179 -31.5631
ltibia 43.9198
lfoot -21.8523 15.6958
ltoes 9.08489
467
root 3.64117 16.6554 0.185536 7.88794 -2.67206 3.28464
lowerback -3.89675 1.83843 -0.427751
upperback 2.37275 2.6396 -3.58666
thorax 4.79589 1.36141 -3.26757
lowerneck -2.73415 9.95124 4.5594
upperneck 54.7554 13.9535 4.80782
head 24.4527 6.67223 4.52503
rclavicle -2.40529e-014 -1.19271e-015
rhumerus -23.8935 6.43382 -93.0563
rradius 80.8383
rwrist -51.2993
rhand -4.93823 -35.0106
rfingers 7.12502
rthumb 20.8528 -63.91
lclavicle -2.40529e-014 -1.19271e-015
lhumerus -8.46437 -10.6393 84.4364
lradius 62.6338
lwrist 73.3683
lhand -27.8067 -12.4104
lfingers 7.12502
lthumb -1.19917 17.566
rfemur -51.2751 10.1466 11.5241
rtibia 75.4362
rfoot 11.0694 3.28897
rtoes -27.587
lfemur -27.3185 -2.52911 -31.5734
ltibia 43.9305
lfoot -21.7452 15.7707
ltoes 9.06029
468
root 3.64215 16.6535 0.185679 7.98124 -2.81085 3.34585
lowerback -3.93444 1.91509 -0.50705
upperback 2.31029 2.74734 -3.6281
thorax 4.75665 1.41251 -3.25672
lowerneck -2.4948 9.95172 4.82531
upperneck 54.6269 14.0972 4.39764
head 24.357 6.75452 4.23958
rclavicle -1.39149e-015 -8.74653e-015
rhumerus -24.0185 6.36054 -93.0708
rradius 80.6248
rwrist -51.3104
rhand -4.978 -35.7084
rfingers 7.12502
rthumb 20.8145 -64.6119
lclavicle -1.39149e-015 -8.74653e-015
lhumerus -8.57173 -10.5742 84.5269
lradius 62.4202
lwrist 73.1513
lhand -25.9446 -12.1544
lfingers 7.12502
lthumb 0.599249 17.8245
rfemur -51.4635 10.2919 11.39
rtibia 75.4711
rfoot 11.1125 3.44663
rtoes -28.2776
lfemur -27.4366 -2.56334 -31.6623
ltibia 43.9888
lfoot -21.775 15.9505
ltoes 8.78
469
root 3.64345 16.6485 0.187759 8.00717 -2.74591 3.35574
lowerback -3.83269 1.93046 -0.49195
upperback 2.2205 2.76205 -3.65339
thorax 4.60794 1.41975 -3.29445
lowerneck -2.31901 9.93392 4.94146
upperneck 54.7124 14.1067 4.32264
head 24.4248 6.77491 4.17893
rclavicle -2.9122e-014 8.74653e-015
rhumerus -24.2103 6.28297 -93.0976
rradius 80.4061
rwrist -51.3949
rhand -4.7761 -37.6853
rfingers 7.12502
rthumb 21.0085 -66.5674
lclavicle -2.9122e-014 8.74653e-015
lhumerus -8.9098 -10.5065 84.6444
lradius 62.4324
lwrist 73.0197
lhand -25.9502 -11.981
lfingers 7.12502
lthumb 0.593848 17.9979
rfemur -51.5088 10.2827 11.3699
rtibia 75.5427
rfoot 11.1415 3.42968
rtoes -28.4405
lfemur -27.4839 -2.68006 -31.6768
ltibia 44.0834
lfoot -21.8221 16.0452
ltoes 8.53412
470
root 3.64292 16.6414 0.189261 8.03772 -2.64835 3.36836
lowerback -3.78991 1.90326 -0.552797
upperback 2.17478 2.72475 -3.6203
thorax 4.52907 1.3981 -3.23046
lowerneck -2.33212 9.91268 4.74182
upperneck 54.9243 14.0309 4.56265
head 24.5765 6.71773 4.3642
rclavicle -6.4605e-015 9.93923e-015
rhumerus -24.401 6.33316 -93.0883
rradius 80.2291
rwrist -51.4815
rhand -4.6833 -38.6254
rfingers 7.12502
rthumb 21.0977 -67.4976
lclavicle -6.4605e-015 9.93923e-015
lhumerus -9.39465 -10.305 84.8432
lradius 62.7861
lwrist 73.1309
lhand -27.4844 -11.9569
lfingers 7.12502
lthumb -0.887977 18.021
rfemur -51.5654 10.2513 11.3646
rtibia 75.6342
rfoot 11.0659 3.34001
rtoes -28.2779
lfemur -27.5836 -2.75587 -31.6728
ltibia 44.186
lfoot -21.8806 16.0175
ltoes 8.74864
471
root 3.6397 16.634 0.190475 8.10866 -2.73068 3.39944
lowerback -3.85553 1.95553 -0.701816
upperback 2.1594 2.80299 -3.59106
thorax 4.54569 1.43167 -3.10801
lowerneck -2.28465 9.8818 4.65543
upperneck 54.9451 14.0011 4.5753
head 24.559 6.69418 4.3765
rclavicle -1.25234e-014 2.06736e-014
rhumerus -24.5682 6.33271 -93.0356
rradius 80.0767
rwrist -51.5309
rhand -4.8436 -37.8756
rfingers 7.12502
rthumb 20.9437 -66.7649
lclavicle -1.25234e-014 2.06736e-014
lhumerus -9.73093 -10.3796 85.0342
lradius 63.2328
lwrist 74.0548
lhand -27.2313 -14.0108
lfingers 7.12502
lthumb -0.643461 15.9679
rfemur -51.7419 10.3787 11.3153
rtibia 75.7233
rfoot 10.9823 3.21997
rtoes -28.0964
lfemur -27.746 -2.70073 -31.6939
ltibia 44.2786
lfoot -21.9104 16.0115
ltoes 9.0147
472
root 3.63921 16.6298 0.191167 8.17895 -2.79054 3.46587
lowerback -3.94482 2.03679 -0.784999
upperback 2.14257 2.92059 -3.63976
thorax 4.58359 1.48835 -3.09981
lowerneck -2.10566 9.85063 4.79285
upperneck 54.868 13.98 4.45134
head 24.4524 6.71676 4.24987
rclavicle -2.61402e-014 3.45885e-014
rhumerus -24.7724 6.16511 -93.0312
rradius 79.9733
rwrist -51.471
rhand -5.21004 -36.1032
rfingers 7.12502
rthumb 20.5916 -65.0311
lclavicle -2.61402e-014 3.45885e-014
lhumerus -9.79981 -10.4692 85.0983
lradius 62.9184
lwrist 73.3956
lhand -26.3838 -12.7879
lfingers 7.12502
lthumb 0.175017 17.1917
rfemur -51.903 10.4721 11.2256
rtibia 75.8038
rfoot 11.0643 3.13175
rtoes -27.9983
lfemur -27.8634 -2.66529 -31.7662
ltibia 44.335
lfoot -21.9177 16.006
ltoes 9.07271
473
root 3.64208 16.628 0.194045 8.21563 -2.77671 3.57978
lowerback -4.02082 2.10243 -0.81206
upperback 2.11507 3.01562 -3.73643
thorax 4.60733 1.53642 -3.17539
lowerneck -2.03165 9.82297 4.86666
upperneck 55.0024 13.8933 4.56896
head 24.5669 6.70596 4.30383
rclavicle -3.97569e-015 3.97569e-016
rhumerus -25.0096 5.97086 -93.0711
rradius 79.7843
rwrist -51.431
rhand -5.46678 -33.0887
rfingers 7.12502
rthumb 20.3449 -62.0431
lclavicle -3.97569e-015 3.97569e-016
lhumerus -9.84892 -10.6661 85.1462
lradius 62.7543
lwrist 73.5207
lhand -23.7457 -12.5812
lfingers 7.12502
lthumb 2.72293 17.3812
rfemur -51.9859 10.4697 11.0895
rtibia 75.8727
rfoot 11.2086 3.04631
rtoes -28.1437
lfemur -27.8894 -2.68901 -31.9042
ltibia 44.3497
lfoot -21.9929 15.9911
ltoes 9.12107
474
root 3.64387 16.6243 0.198121 8.24699 -2.76202 3.6801
lowerback -4.06242 2.07661 -1.0044
upperback 2.10077 2.99225 -3.71992
thorax 4.60382 1.51828 -3.05082
lowerneck -1.95599 9.86222 4.7487
upperneck 55.2036 13.9338 4.73925
head 24.7038 6.70364 4.44883
rclavicle 0 -2.0276e-014
rhumerus -25.194 6.05545 -93.0634
rradius 79.5764
rwrist -51.4843
rhand -3.13768 -45.2423
rfingers 7.12502
rthumb 22.5818 -73.9416
lclavicle 0 -2.0276e-014
lhumerus -9.89473 -10.6347 85.2437
lradius 62.659
lwrist 74.2048
lhand -22.4882 -13.3327
lfingers 7.12502
lthumb 3.93734 16.6107
rfemur -52.0572 10.4929 10.9626
rtibia 75.9424
rfoot 11.2344 2.98276
rtoes -28.2562
lfemur -27.9021 -2.68859 -32.0308
ltibia 44.3425
lfoot -21.9828 15.9763
ltoes 8.96572
